<svg width="32" height="10" viewBox="0 0 32 10" fill="none" xmlns="http://www.w3.org/2000/svg">
<path d="M5.004 8.652C4.796 8.74 4.572 8.824 4.332 8.904C4.1 8.976 3.86 9.032 3.612 9.072C3.372 9.112 3.136 9.132 2.904 9.132C2.56 9.132 2.244 9.076 1.956 8.964C1.668 8.844 1.436 8.652 1.26 8.388C1.092 8.116 1.008 7.752 1.008 7.296V4.404H0.228V2.688H1.008V0.707999H3.288V2.688H4.524V4.404H3.288V6.492C3.288 6.7 3.332 6.848 3.42 6.936C3.508 7.016 3.628 7.056 3.78 7.056C3.892 7.056 4.02 7.036 4.164 6.996C4.308 6.956 4.452 6.908 4.596 6.852L5.004 8.652ZM9.93422 4.632C9.49422 4.632 9.09422 4.68 8.73422 4.776C8.37422 4.872 8.10622 5.032 7.93022 5.256V9H5.65022V2.688H7.73822V3.888C7.96222 3.464 8.24222 3.14 8.57822 2.916C8.91422 2.684 9.27022 2.568 9.64622 2.568C9.73422 2.568 9.79422 2.568 9.82622 2.568C9.86622 2.568 9.90222 2.572 9.93422 2.58V4.632ZM10.2241 7.092C10.2241 6.668 10.3401 6.296 10.5721 5.976C10.8041 5.648 11.1241 5.392 11.5321 5.208C11.9481 5.024 12.4201 4.932 12.9481 4.932C13.1961 4.932 13.4281 4.952 13.6441 4.992C13.8681 5.032 14.0601 5.092 14.2201 5.172V4.98C14.2201 4.684 14.1321 4.464 13.9561 4.32C13.7881 4.176 13.5121 4.104 13.1281 4.104C12.7761 4.104 12.4441 4.164 12.1321 4.284C11.8281 4.396 11.5081 4.564 11.1721 4.788L10.5121 3.372C10.9361 3.1 11.3801 2.9 11.8441 2.772C12.3161 2.636 12.8201 2.568 13.3561 2.568C14.3561 2.568 15.1281 2.796 15.6721 3.252C16.2241 3.7 16.5001 4.368 16.5001 5.256V6.48C16.5001 6.696 16.5321 6.848 16.5961 6.936C16.6601 7.016 16.7721 7.064 16.9321 7.08V9C16.7481 9.04 16.5721 9.068 16.4041 9.084C16.2441 9.108 16.1001 9.12 15.9721 9.12C15.5641 9.12 15.2521 9.048 15.0361 8.904C14.8281 8.752 14.6921 8.532 14.6281 8.244L14.5801 8.016C14.3001 8.376 13.9761 8.652 13.6081 8.844C13.2401 9.028 12.8481 9.12 12.4321 9.12C12.0161 9.12 11.6401 9.032 11.3041 8.856C10.9681 8.68 10.7041 8.44 10.5121 8.136C10.3201 7.824 10.2241 7.476 10.2241 7.092ZM13.9201 7.248C14.0081 7.184 14.0801 7.116 14.1361 7.044C14.1921 6.964 14.2201 6.884 14.2201 6.804V6.336C14.0921 6.288 13.9441 6.248 13.7761 6.216C13.6161 6.184 13.4721 6.168 13.3441 6.168C13.0721 6.168 12.8401 6.236 12.6481 6.372C12.4641 6.508 12.3721 6.68 12.3721 6.888C12.3721 7 12.4041 7.104 12.4681 7.2C12.5321 7.288 12.6201 7.36 12.7321 7.416C12.8441 7.464 12.9721 7.488 13.1161 7.488C13.2521 7.488 13.3921 7.468 13.5361 7.428C13.6881 7.38 13.8161 7.32 13.9201 7.248ZM22.1134 8.652C21.9054 8.74 21.6814 8.824 21.4414 8.904C21.2094 8.976 20.9694 9.032 20.7214 9.072C20.4814 9.112 20.2454 9.132 20.0134 9.132C19.6694 9.132 19.3534 9.076 19.0654 8.964C18.7774 8.844 18.5454 8.652 18.3694 8.388C18.2014 8.116 18.1174 7.752 18.1174 7.296V4.404H17.3374V2.688H18.1174V0.707999H20.3974V2.688H21.6334V4.404H20.3974V6.492C20.3974 6.7 20.4414 6.848 20.5294 6.936C20.6174 7.016 20.7374 7.056 20.8894 7.056C21.0014 7.056 21.1294 7.036 21.2734 6.996C21.4174 6.956 21.5614 6.908 21.7054 6.852L22.1134 8.652ZM25.7973 9.12C25.2373 9.12 24.7413 9.032 24.3093 8.856C23.8773 8.68 23.5133 8.44 23.2173 8.136C22.9293 7.824 22.7093 7.472 22.5573 7.08C22.4133 6.688 22.3413 6.276 22.3413 5.844C22.3413 5.412 22.4133 5 22.5573 4.608C22.7093 4.208 22.9293 3.856 23.2173 3.552C23.5133 3.248 23.8773 3.008 24.3093 2.832C24.7413 2.656 25.2373 2.568 25.7973 2.568C26.3653 2.568 26.8613 2.656 27.2853 2.832C27.7173 3.008 28.0773 3.248 28.3653 3.552C28.6613 3.856 28.8813 4.208 29.0253 4.608C29.1773 5 29.2533 5.412 29.2533 5.844C29.2533 6.276 29.1773 6.688 29.0253 7.08C28.8813 7.472 28.6613 7.824 28.3653 8.136C28.0773 8.44 27.7173 8.68 27.2853 8.856C26.8613 9.032 26.3653 9.12 25.7973 9.12ZM24.6813 5.844C24.6813 6.124 24.7293 6.368 24.8253 6.576C24.9213 6.776 25.0533 6.932 25.2213 7.044C25.3893 7.148 25.5813 7.2 25.7973 7.2C26.0133 7.2 26.2053 7.148 26.3733 7.044C26.5413 6.932 26.6733 6.776 26.7693 6.576C26.8653 6.368 26.9133 6.124 26.9133 5.844C26.9133 5.564 26.8653 5.324 26.7693 5.124C26.6733 4.916 26.5413 4.76 26.3733 4.656C26.2053 4.544 26.0133 4.488 25.7973 4.488C25.5813 4.488 25.3893 4.544 25.2213 4.656C25.0533 4.76 24.9213 4.916 24.8253 5.124C24.7293 5.324 24.6813 5.564 24.6813 5.844ZM30.0844 9V6.792H31.9324V9H30.0844Z" fill="black"/>
</svg>
